<svg width="88" height="88" viewBox="0 0 88 88" fill="#4038FF" xmlns="http://www.w3.org/2000/svg">
  <path d="M49 8C41.8203 8 36 13.8203 36 21V88H28V21C28 9.40202 37.402 0 49 0C70.5391 0 88 17.4609 88 39C88 60.2057 71.0755 77.4585 49.9972 77.9875L48.2222 70H49C66.1208 70 80 56.1208 80 39C80 21.8792 66.1208 8 49 8Z" />
  <path d="M46.8889 64H49C62.8071 64 74 52.8071 74 39C74 25.1929 62.8071 14 49 14C45.134 14 42 17.134 42 21V22H49C58.3888 22 66 29.6112 66 39C66 48.3888 58.3888 56 49 56H45.1111L46.8889 64Z" />
  <path d="M43.7778 50H49C55.0751 50 60 45.0751 60 39C60 32.9249 55.0751 28 49 28H42V36H49C50.6569 36 52 37.3431 52 39C52 40.6569 50.6569 42 49 42H42L43.7778 50Z" />
  <path d="M22.1226 18.4105C22.0415 19.2627 22 20.1265 22 21V88H14V35C14 28.2549 17.18 22.2526 22.1226 18.4105Z" />
  <path d="M0 49C0 42.2549 3.18001 36.2526 8.12257 32.4105C8.04148 33.2627 8 34.1265 8 35V88H0V49Z" />
</svg>
