<svg id="ewREIyrxofa1" xmlns="http://www.w3.org/2000/svg" xmlns:xlink="http://www.w3.org/1999/xlink" viewBox="0 0 100 101" shape-rendering="geometricPrecision" text-rendering="geometricPrecision"><style><![CDATA[#ewREIyrxofa3_to {animation: ewREIyrxofa3_to__to 2000ms linear infinite normal forwards}@keyframes ewREIyrxofa3_to__to { 0% {transform: translate(41.47071px,52.485397px)} 75% {transform: translate(41.47071px,62.485397px)} 100% {transform: translate(41.47071px,62.485397px)}} #ewREIyrxofa5_to {animation: ewREIyrxofa5_to__to 2000ms linear infinite normal forwards}@keyframes ewREIyrxofa5_to__to { 0% {transform: translate(43.655601px,9.8111px)} 50% {transform: translate(43.655601px,3.069601px)} 75% {transform: translate(43.655601px,13.069601px)} 100% {transform: translate(43.655601px,13.069601px)}} #ewREIyrxofa11_to {animation: ewREIyrxofa11_to__to 2000ms linear infinite normal forwards}@keyframes ewREIyrxofa11_to__to { 0% {transform: translate(43.655601px,83.069601px)} 50% {transform: translate(43.655601px,83.069601px)} 75% {transform: translate(43.655601px,87.069601px)} 100% {transform: translate(43.655601px,87.069601px)}} #ewREIyrxofa13_to {animation: ewREIyrxofa13_to__to 2000ms linear infinite normal forwards}@keyframes ewREIyrxofa13_to__to { 0% {transform: translate(68.26471px,62.482628px);animation-timing-function: cubic-bezier(0.42,0,0.58,1)} 35% {transform: translate(66.590288px,46.63517px);animation-timing-function: cubic-bezier(0.42,0,0.58,1)} 70% {transform: translate(47.977847px,57.879827px);animation-timing-function: cubic-bezier(0.42,0,0.58,1)} 100% {transform: translate(68.26471px,62.482628px)}} #ewREIyrxofa13_tr {animation: ewREIyrxofa13_tr__tr 2000ms linear infinite normal forwards}@keyframes ewREIyrxofa13_tr__tr { 0% {transform: rotate(0deg)} 35% {transform: rotate(12deg)} 100% {transform: rotate(0deg)}} #ewREIyrxofa24_tr {animation: ewREIyrxofa24_tr__tr 2000ms linear infinite normal forwards}@keyframes ewREIyrxofa24_tr__tr { 0% {transform: translate(66.618246px,60.632441px) rotate(0deg)} 100% {transform: translate(66.618246px,60.632441px) rotate(360deg)}}]]></style><defs><filter id="ewREIyrxofa13-filter" x="-400%" width="600%" y="-400%" height="600%"><feComponentTransfer id="ewREIyrxofa13-filter-brightness-0" result="result"><feFuncR id="ewREIyrxofa13-filter-brightness-0-R" type="linear" slope="1"/><feFuncG id="ewREIyrxofa13-filter-brightness-0-G" type="linear" slope="1"/><feFuncB id="ewREIyrxofa13-filter-brightness-0-B" type="linear" slope="1"/></feComponentTransfer></filter></defs><rect id="ewREIyrxofa2" width="66.99999" height="90.99996" rx="0" ry="0" transform="matrix(1 0 0 0.962036 7.99991 8.726901)" fill="transparent" stroke="rgb(63,56,255)" stroke-width="3" stroke-linecap="round"/><g id="ewREIyrxofa3_to" transform="translate(41.47071,52.485397)"><g id="ewREIyrxofa3" transform="translate(-41.47071,-53.485397)"><path id="ewREIyrxofa4" d="M20.130117,68.985401L62.8113,68.985401L20.130117,68.985401Z" transform="matrix(1 0 0 1 0.000001 -45.999999)" fill="none" stroke="rgb(63,56,255)" stroke-width="2"/><g id="ewREIyrxofa5_to" transform="translate(43.655601,9.8111)"><path id="ewREIyrxofa5" d="M20.130117,68.985401L62.8113,68.985401L20.130117,68.985401Z" transform="translate(-43.6556,-69.0696)" fill="none" stroke="rgb(63,56,255)" stroke-width="2"/></g><path id="ewREIyrxofa6" d="M20.130117,68.985401L62.8113,68.985401L20.130117,68.985401Z" transform="matrix(1 0 0 1 0.000001 -35.999999)" fill="none" stroke="rgb(63,56,255)" stroke-width="2"/><path id="ewREIyrxofa7" d="M20.130117,68.985401L62.8113,68.985401L20.130117,68.985401Z" transform="matrix(1 0 0 1 0.000001 -25.999999)" fill="none" stroke="rgb(63,56,255)" stroke-width="2"/><path id="ewREIyrxofa8" d="M20.130117,68.985401L62.8113,68.985401L20.130117,68.985401Z" transform="matrix(1 0 0 1 0.000001 -15.999999)" fill="none" stroke="rgb(63,56,255)" stroke-width="2"/><path id="ewREIyrxofa9" d="M20.130117,68.985401L62.8113,68.985401L20.130117,68.985401Z" transform="matrix(1 0 0 1 0.000001 -5.999999)" fill="none" stroke="rgb(63,56,255)" stroke-width="2"/><path id="ewREIyrxofa10" d="M20.130117,68.985401L62.8113,68.985401L20.130117,68.985401Z" transform="matrix(1 0 0 1 0.000001 4.000001)" fill="none" stroke="rgb(63,56,255)" stroke-width="2"/><g id="ewREIyrxofa11_to" transform="translate(43.655601,83.069601)"><path id="ewREIyrxofa11" d="M20.130117,68.985401L62.8113,68.985401L20.130117,68.985401Z" transform="translate(-43.6556,-69.0696)" fill="none" stroke="rgb(63,56,255)" stroke-width="2"/></g></g></g><path id="ewREIyrxofa12" d="M8.49991,92.9995L1.99991,92.9995L1.99991,1.99954L68.9999,1.99954L68.9999,7.99954" fill="none" stroke="rgb(63,56,255)" stroke-width="3"/><g id="ewREIyrxofa13_to" transform="translate(68.26471,62.482628)"><g id="ewREIyrxofa13_tr" transform="rotate(0)"><g id="ewREIyrxofa13" transform="translate(-68.26471,-62.482627)" filter="url(#ewREIyrxofa13-filter)"><g id="ewREIyrxofa14"><path id="ewREIyrxofa15" d="M77.5785,76.9839L90.66,90.0654L91.3671,90.7725C92.1172,91.5226,93.1347,91.9441,94.1955,91.9441C95.2564,91.9441,96.2738,91.5226,97.024,90.7725C97.7741,90.0224,98.1955,89.0049,98.1955,87.9441C98.1955,86.8832,97.7741,85.8658,97.024,85.1156L83.9425,72.0342" fill="rgb(31,37,46)" stroke="rgb(63,56,255)" stroke-width="3"/><g id="ewREIyrxofa16"><path id="ewREIyrxofa17" d="M82.1748,82.9813L82.1748,73.0818" fill="none" stroke="rgb(63,56,255)" stroke-width="0.5"/><path id="ewREIyrxofa18" d="M85.0032,85.8097L85.0032,73.0818" fill="none" stroke="rgb(63,56,255)" stroke-width="0.5"/><path id="ewREIyrxofa19" d="M87.8316,87.2239L87.8316,74.496" fill="none" stroke="rgb(63,56,255)" stroke-width="0.5"/><path id="ewREIyrxofa20" d="M90.66,90.0523L90.66,77.3244" fill="none" stroke="rgb(63,56,255)" stroke-width="0.5"/><path id="ewREIyrxofa21" d="M93.4885,92.8808L93.4885,80.1529" fill="none" stroke="rgb(63,56,255)" stroke-width="0.5"/></g></g><g id="ewREIyrxofa22" transform="matrix(1 0 0 1 0.000001 0)"><circle id="ewREIyrxofa23" r="20" transform="matrix(0.707107 -0.707107 0.707107 0.707107 66.618198 60.368736)" fill="rgb(31,37,46)" stroke="rgb(63,56,255)" stroke-width="3"/><g id="ewREIyrxofa24_tr" transform="translate(66.618246,60.632441) rotate(0)"><path id="ewREIyrxofa24" d="M76.5177,50.4692C78.6912,52.6426,80.089,55.471,80.4953,58.5177C80.9017,61.5645,80.2941,64.6603,78.7663,67.3274C77.2385,69.9946,74.8754,72.0848,72.0417,73.2755C69.2079,74.4662,66.0611,74.6913,63.0868,73.916C60.1124,73.1406,57.4759,71.408,55.5841,68.9854C53.6923,66.5628,52.6503,63.585,52.619,60.5114C52.5876,57.4378,53.5687,54.4394,55.4107,51.9787C57.2527,49.5181,59.8534,47.732,62.8113,46.8962" transform="translate(-66.618246,-60.632441)" fill="none" stroke="rgb(63,56,255)" stroke-width="1"/></g></g></g></g></g></svg>