<svg xmlns="http://www.w3.org/2000/svg" x="0px" y="0px" viewBox="0 0 24 24" fill="none">
  <path fill="#3F38FF" d="M11.4,0.2h2.2c0,4.6,0.2,9.3,0,13.9c-0.3,6.3-5.2,9.7-9.7,9.7c-0.4,0-0.9,0-1.3,0l0.7-2.1c0.2,0,0.4,0,0.6,0  c3.5,0,7.5-2.4,7.5-6.9V0.2z"/>
  <path fill="#3F38FF" d="M19.3,0.2h2.2v6.2c0,2.4-0.9,4.7-2.5,6.4c0.2-0.8,0.3-1.7,0.3-2.6V0.2z M4.9,20c0,0-0.2,0-0.3,0  c-0.1,0-0.2,0-0.3,0H3.8l0.7-2.1l3.9-0.1c0,0-0.1,0.1-0.1,0.1c0,0-0.1,0.1-0.1,0.1c0,0-0.2,0.2-0.2,0.2C7,19.2,5.5,20,4.9,20z   M15.1,14.4c0-4.7,0-9.5,0-14.2h2.4V12c0,0.1,0,0.2,0,0.3c-0.2,1.8-1.4,3.2-2.5,4C15.1,16.1,15.1,16.1,15.1,14.4z"/>
  <path fill="#3F38FF" d="M9.5,16.1c-1.5,0-3.1,0-4.6,0L5.6,14c1.4,0,2.7-0.1,4.1-0.1C9.7,14.7,9.7,15.3,9.5,16.1z"/>
</svg>