<svg width="76.1" height="70" fill="none" version="1.1" viewBox="0 0 76.1 70" xmlns="http://www.w3.org/2000/svg">
 <path d="m71.9 0.5-29.3 21.6 5.46-12.7z" fill="#e17726" stroke="#e17726" stroke-linecap="round" stroke-linejoin="round"/>
 <g fill="#e27625" stroke="#e27625" stroke-linecap="round" stroke-linejoin="round">
  <path d="m4.21 0.5 29.1 21.8-5.19-12.9z"/>
  <path d="m61.3 50.5-7.81 11.8 16.7 4.57 4.79-16.2z"/>
  <path d="m1.11 50.8 4.76 16.2 16.7-4.57-7.78-11.8z"/>
  <path d="m21.7 30.5-4.64 6.96 16.5 0.748-0.551-17.7z"/>
  <path d="m54.5 30.5-11.5-10.2-0.377 17.9 16.5-0.748z"/>
  <path d="m22.6 62.3 10-4.8-8.62-6.67z"/>
  <path d="m43.5 57.5 9.98 4.8-1.36-11.5z"/>
 </g>
 <g stroke-linecap="round" stroke-linejoin="round">
  <path d="m53.5 62.3-9.98-4.8 0.813 6.44-0.087 2.73z" fill="#d5bfb2" stroke="#d5bfb2"/>
  <path d="m22.6 62.3 9.29 4.37-0.058-2.73 0.784-6.44z" fill="#d5bfb2" stroke="#d5bfb2"/>
  <path d="m32 46.6-8.3-2.42 5.86-2.67z" fill="#233447" stroke="#233447"/>
  <path d="m44.1 46.6 2.44-5.09 5.89 2.67z" fill="#233447" stroke="#233447"/>
 </g>
 <g fill="#cc6228" stroke="#cc6228" stroke-linecap="round" stroke-linejoin="round">
  <path d="m22.6 62.3 1.45-11.8-9.23 0.259z"/>
  <path d="m52.1 50.5 1.42 11.8 7.81-11.6z"/>
  <path d="m59.1 37.4-16.5 0.748 1.54 8.42 2.44-5.09 5.89 2.67z"/>
  <path d="m23.7 44.2 5.86-2.67 2.44 5.09 1.54-8.42-16.5-0.748z"/>
 </g>
 <g fill="#e27525" stroke="#e27525" stroke-linecap="round" stroke-linejoin="round">
  <path d="m17 37.4 6.94 13.4-0.232-6.67z"/>
  <path d="m52.4 44.2-0.261 6.67 6.94-13.4z"/>
  <path d="m33.6 38.2-1.54 8.42 1.94 9.95 0.435-13.1z"/>
  <path d="m42.6 38.2-0.813 5.23 0.406 13.1 1.94-9.95z"/>
 </g>
 <g stroke-linecap="round" stroke-linejoin="round">
  <path d="m44.1 46.6-1.94 9.95 1.39 0.978 8.62-6.67 0.261-6.67z" fill="#f5841f" stroke="#f5841f"/>
  <path d="m23.7 44.2 0.232 6.67 8.62 6.67 1.39-0.978-1.94-9.95z" fill="#f5841f" stroke="#f5841f"/>
  <path d="m44.3 66.7 0.087-2.73-0.754-0.632h-11.1l-0.726 0.632 0.058 2.73-9.29-4.37 3.25 2.64 6.59 4.51h11.3l6.62-4.51 3.22-2.64z" fill="#c0ac9d" stroke="#c0ac9d"/>
  <path d="m43.5 57.5-1.39-0.978h-8.18l-1.39 0.978-0.784 6.44 0.726-0.632h11.1l0.755 0.632z" fill="#161616" stroke="#161616"/>
  <path d="m73.1 23.5 2.47-11.9-3.71-11.1-28.4 20.8 10.9 9.14 15.4 4.46 3.4-3.94-1.48-1.06 2.35-2.13-1.8-1.38 2.35-1.78z" fill="#763e1a" stroke="#763e1a"/>
  <path d="m0.5 11.6 2.5 11.9-1.6 1.18 2.38 1.78-1.8 1.38 2.35 2.13-1.48 1.06 3.4 3.94 15.4-4.46 10.9-9.14-28.4-20.8z" fill="#763e1a" stroke="#763e1a"/>
 </g>
 <g fill="#f5841f" stroke="#f5841f" stroke-linecap="round" stroke-linejoin="round">
  <path d="m69.9 34.9-15.4-4.46 4.64 6.96-6.94 13.4 9.17-0.115h13.7z"/>
  <path d="m21.7 30.5-15.4 4.46-5.14 15.8h13.7l9.17 0.115-6.94-13.4z"/>
  <path d="m42.6 38.2 0.987-16.8 4.47-12h-19.9l4.47 12 0.987 16.8 0.377 5.29 0.029 13.1h8.18l0.029-13.1z"/>
 </g>
</svg>
