<svg width="96" height="96" version="1.0" viewBox="0 0 96 96" xml:space="preserve" xmlns="http://www.w3.org/2000/svg">
<style type="text/css">
	.st0{fill-rule:evenodd;clip-rule:evenodd;fill:url(#a);}
	.st1{fill:#FFFFFF;}
</style>
<g transform="matrix(.188 0 0 .188 -29.2 -9.94)">
	
		<radialGradient id="a" cx="13.3" cy="609" r="1" gradientTransform="matrix(512,0,0,-512,-6643,312330)" gradientUnits="userSpaceOnUse">
		<stop stop-color="#5D9DF6" offset="0"/>
		<stop stop-color="#006FFF" offset="1"/>
	</radialGradient>
	<path class="st0" d="m412 53c141 0 256 115 256 256s-115 256-256 256-256-115-256-256 115-256 256-256z" fill="url(#a)"/>
	<path class="st1" d="m319 251c51.5-50.3 135-50.3 187 0l6.2 6.1c2.6 2.5 2.6 6.6 0 9.1l-21.2 20.7c-1.3 1.3-3.4 1.3-4.7 0l-8.5-8.3c-36-35.1-94.2-35.1-130 0l-9.1 8.9c-1.3 1.3-3.4 1.3-4.7 0l-21.2-20.7c-2.6-2.5-2.6-6.6 0-9.1zm230 42.8 18.9 18.4c2.6 2.5 2.6 6.6 0 9.1l-85.1 83.1c-2.6 2.5-6.8 2.5-9.3 0l-60.4-59c-0.6-0.6-1.7-0.6-2.3 0l-60.4 59c-2.6 2.5-6.8 2.5-9.3 0l-85.4-83.1c-2.6-2.5-2.6-6.6 0-9.1l18.9-18.4c2.6-2.5 6.8-2.5 9.3 0l60.4 59c0.6 0.6 1.7 0.6 2.3 0l60.4-59c2.6-2.5 6.8-2.5 9.3 0l60.4 59c0.6 0.6 1.7 0.6 2.3 0l60.4-59c2.8-2.5 7-2.5 9.6 0z"/>
</g>
</svg>
